<?xml version="1.0" encoding="utf-8"?>
<!-- Generator: Adobe Illustrator 22.0.0, SVG Export Plug-In . SVG Version: 6.00 Build 0)  -->
<svg version="1.1" id="Layer_1" xmlns="http://www.w3.org/2000/svg" xmlns:xlink="http://www.w3.org/1999/xlink" x="0px" y="0px"
	 viewBox="0 0 150 150" style="enable-background:new 0 0 150 150;" xml:space="preserve">
<title>eye 8</title>
<desc>Created with Sketch.</desc>
<g id="Symbols">
	<g id="eye-8">
		<g id="eye">
			<ellipse id="eye_background" style="fill:#EB2F2F;" cx="74.6" cy="75" rx="74.6" ry="75"/>
			<path id="eye_iris" d="M74.3,35.2c-22.1,0-40.1,17.8-40.1,39.7c0,22.2,18.1,39.8,40.1,39.8s40-17.7,40-39.8
				C114.3,53,96.5,35.2,74.3,35.2L74.3,35.2"/>
			<path id="eye_lash_bottom" d="M74.7,118.3c-34.2,0-58.9-21.5-69.4-43.3H0c0,41.4,33,75,74.7,75c41.8,0,74.4-33.6,74.4-75h-5
				C133.7,96.8,108.7,118.3,74.7,118.3z"/>
			<path id="eye_lash_top" d="M149.1,75c0-41.2-32.6-75-74.5-75C33.1,0,0,33.8,0,75h5.3c10.5-21.7,35.2-43.2,69.4-43.2
				c34,0,58.8,21.5,69.4,43.2H149.1z"/>
		</g>
	</g>
</g>
</svg>
