<?xml version="1.0" encoding="utf-8"?>
<!-- Generator: Adobe Illustrator 22.0.0, SVG Export Plug-In . SVG Version: 6.00 Build 0)  -->
<svg version="1.1" id="Layer_1" xmlns="http://www.w3.org/2000/svg" xmlns:xlink="http://www.w3.org/1999/xlink" x="0px" y="0px"
	 viewBox="0 0 512 59" style="enable-background:new 0 0 512 59;" xml:space="preserve">
<style type="text/css">
	.st0{enable-background:new    ;}
</style>
<title>type-a</title>
<desc>Created with Sketch.</desc>
<g id="text-a" class="st0">
	<path d="M0.5,1.9h19.7c7.2,0.1,9.2,0.2,11.8,1c5.5,1.6,9.7,6.6,9.7,12.6c0,2.4-0.8,5.4-2.3,7.5c-1.7,2.3-3.9,3.4-6.9,4
		c6.1,1.1,11.8,6,11.8,14.5c0,6.3-3.2,11.9-9.8,14.3C31,56.9,28.2,57,22,57H0.5V1.9z M10.7,10.4v13.7h3.5c2.9,0,5,0,6.2-0.1
		c2.6,0,5.1-0.1,7-1.1c2.2-1.1,3.7-3.2,3.7-5.7c0-2.1-1.1-4.2-3.2-5.5c-2.2-1.2-3.3-1.3-10.8-1.4h-6.4V10.4z M10.7,31.8v16.3h10.1
		c6.1,0,7.7,0,10.4-1.9c1.4-1,2.5-3.1,2.5-5.8c0-1.2-0.2-2.7-1-4.1c-2.5-4.4-8.3-4.4-11.8-4.4L10.7,31.8z"/>
	<path d="M66.3,1.9V57H56.1V1.9H66.3z"/>
	<path d="M124.9,26.9V57h-8.8v-4.7c-4.9,4.8-10.5,6.1-15.1,6.1c-17,0-26-13.6-26-28.4c0-17.3,11.5-29.5,26.6-29.5
		c11.5,0,19.9,7,23.2,16.2l-9.8,4c-1-3-4-10.9-13.3-10.9c-10.4,0-15.4,9-15.4,19.9c0,12.1,6.6,19,15.6,19c5.8,0,12.6-3,13.6-12.8
		h-13.7v-9C101.8,26.9,124.9,26.9,124.9,26.9z"/>
	<path d="M155.1,1.9h19.7c7.3,0.1,9.3,0.2,11.9,0.9c5.5,1.6,9.7,6.6,9.7,12.6c0,2.4-0.8,5.4-2.3,7.5c-1.7,2.3-3.9,3.4-6.9,4
		c6.1,1.1,11.8,6,11.8,14.5c0,6.3-3.2,11.9-9.8,14.3c-3.5,1.2-6.2,1.3-12.5,1.3h-21.5L155.1,1.9L155.1,1.9z M165.3,10.4v13.7h3.5
		c2.9,0,5,0,6.2-0.1c2.6,0,5.1-0.1,7-1.1c2.2-1.1,3.7-3.2,3.7-5.7c0-2.1-1.1-4.2-3.2-5.5c-2.2-1.2-3.3-1.3-10.8-1.4h-6.4V10.4z
		 M165.3,31.8v16.3h10.1c6.1,0,7.7,0,10.4-1.9c1.4-1,2.5-3.1,2.5-5.8c0-1.2-0.2-2.7-1-4.1c-2.5-4.4-8.3-4.4-11.8-4.4L165.3,31.8z"/>
	<path d="M210.9,1.9h17.6c7.3,0.1,12.2,0.1,17.1,4c3.4,2.8,6.1,7.2,6.1,13.6c0,10.5-7.7,14.2-10.8,15.1L253,57h-11.8l-10.9-20.4
		h-9.2V57h-10.2L210.9,1.9L210.9,1.9z M221.1,10.8V28h3.6c3.5,0,4.8-0.1,6.8-0.2c2.3-0.1,9.7-0.5,9.7-8.5c0-1.2-0.1-5.2-4.4-7.4
		c-2.2-1.1-4.8-1.2-10.9-1.2h-4.8V10.8z"/>
	<path d="M283.8,58.4c-6.9,0-13.3-2-19-8.4c-5.5-6.3-7.3-13.5-7.3-20.4c0-16.8,11.4-29,26.4-29c13.7,0,26.4,10.1,26.4,28.9
		C310.3,45.2,300.7,58.4,283.8,58.4z M283.9,10c-9.4,0-15.8,7.6-15.8,19.1c0,12.4,6.9,19.8,16,19.8c6.9,0,15.7-5,15.9-18.3
		C300.3,19.9,294.7,10,283.9,10z"/>
	<path d="M351.8,11.3h-15.2V57h-10.3V11.3h-14.9V1.9h40.4V11.3z"/>
	<path d="M402.9,1.9V57h-10.4V32h-23.6v25h-10.3V1.9h10.3v20.8h23.6V1.9H402.9z"/>
	<path d="M427.4,11.1V24h26.5v9h-26.5v14.7h31V57h-41.1V1.9h39.2v9.2C456.5,11.1,427.4,11.1,427.4,11.1z"/>
	<path d="M468.4,1.9H486c7.3,0.1,12.2,0.1,17.1,4c3.4,2.8,6.1,7.2,6.1,13.6c0,10.5-7.7,14.2-10.8,15.1L510.5,57h-11.8l-10.9-20.4
		h-9.2V57h-10.2V1.9z M478.6,10.8V28h3.6c3.5,0,4.8-0.1,6.8-0.2c2.3-0.1,9.7-0.5,9.7-8.5c0-1.2-0.1-5.2-4.4-7.4
		c-2.2-1.1-4.8-1.2-10.9-1.2h-4.8V10.8z"/>
</g>
</svg>
