<?xml version="1.0" encoding="utf-8"?>
<!-- Generator: Adobe Illustrator 22.0.0, SVG Export Plug-In . SVG Version: 6.00 Build 0)  -->
<svg version="1.1" id="Layer_1" xmlns="http://www.w3.org/2000/svg" xmlns:xlink="http://www.w3.org/1999/xlink" x="0px" y="0px"
	 viewBox="0 0 512 59" style="enable-background:new 0 0 512 59;" xml:space="preserve">
<style type="text/css">
	.st0{enable-background:new    ;}
</style>
<title>type-b</title>
<desc>Created with Sketch.</desc>
<g id="Symbols">
	<g id="text-b">
		<g class="st0">
			<path d="M0,1.9h19.7C27,2,28.9,2.1,31.6,2.9c5.5,1.6,9.7,6.6,9.7,12.6c0,2.4-0.8,5.4-2.3,7.5c-1.7,2.3-3.9,3.4-6.9,4
				c6.1,1.1,11.8,6,11.8,14.5c0,6.3-3.2,11.9-9.8,14.3c-3.5,1.2-6.2,1.3-12.5,1.3H0V1.9z M10.2,10.4v13.7h3.5c2.9,0,5,0,6.2-0.1
				c2.6,0,5.1-0.1,7-1.1c2.2-1.1,3.7-3.2,3.7-5.7c0-2.1-1.1-4.2-3.2-5.5c-2.2-1.2-3.3-1.3-10.8-1.4H10.2z M10.2,31.8v16.3h10.1
				c6.1,0,7.7,0,10.4-1.9c1.4-1,2.5-3.1,2.5-5.8c0-1.2-0.2-2.7-1-4.1c-2.5-4.4-8.3-4.4-11.8-4.4L10.2,31.8z"/>
			<path d="M63.8,11.1v12.9h26.5V33H63.8v14.7h31V57H53.7V1.9h39.2v9.2H63.8z"/>
			<path d="M117.7,1.9h17.6c7.3,0.1,12.2,0.1,17.1,4c3.4,2.8,6.1,7.2,6.1,13.6c0,10.5-7.7,14.2-10.8,15.1L159.8,57H148l-10.9-20.4
				h-9.2V57h-10.2V1.9z M127.9,10.8v17.2h3.6c3.5,0,4.8-0.1,6.8-0.2c2.3-0.1,9.7-0.5,9.7-8.5c0-1.2-0.1-5.2-4.4-7.4
				c-2.2-1.1-4.8-1.2-10.9-1.2H127.9z"/>
			<path d="M178.4,1.9V57h-10.1V1.9H178.4z"/>
			<path d="M235.2,26.9V57h-8.8v-4.7c-4.9,4.8-10.5,6.1-15.1,6.1c-17,0-26-13.6-26-28.4c0-17.3,11.5-29.5,26.6-29.5
				c11.5,0,19.9,7,23.2,16.2l-9.8,4c-1-3-4-10.9-13.3-10.9c-10.4,0-15.4,9-15.4,19.9c0,12.1,6.6,19,15.6,19c5.8,0,12.6-3,13.6-12.8
				H212v-9H235.2z"/>
			<path d="M291.1,1.9V57h-10.4V32h-23.6v25h-10.3V1.9h10.3v20.8h23.6V1.9H291.1z"/>
			<path d="M336.5,11.3h-15.2V57H311V11.3h-14.9V1.9h40.4V11.3z"/>
			<path d="M359.5,1.9h19.7c7.3,0.1,9.3,0.2,11.9,0.9c5.5,1.6,9.7,6.6,9.7,12.6c0,2.4-0.8,5.4-2.3,7.5c-1.7,2.3-3.9,3.4-6.9,4
				c6.1,1.1,11.8,6,11.8,14.5c0,6.3-3.2,11.9-9.8,14.3C390,56.9,387.3,57,381,57h-21.5V1.9z M369.7,10.4v13.7h3.5c2.9,0,5,0,6.2-0.1
				c2.6,0,5.1-0.1,7-1.1c2.2-1.1,3.7-3.2,3.7-5.7c0-2.1-1.1-4.2-3.2-5.5c-2.2-1.2-3.3-1.3-10.8-1.4H369.7z M369.7,31.8v16.3h10.1
				c6.1,0,7.7,0,10.4-1.9c1.4-1,2.5-3.1,2.5-5.8c0-1.2-0.2-2.7-1-4.1c-2.5-4.4-8.3-4.4-11.8-4.4L369.7,31.8z"/>
			<path d="M413.4,1.9h17.6c7.3,0.1,12.2,0.1,17.1,4c3.4,2.8,6.1,7.2,6.1,13.6c0,10.5-7.7,14.2-10.8,15.1L455.5,57h-11.8l-10.9-20.4
				h-9.2V57h-10.2V1.9z M423.6,10.8v17.2h3.6c3.5,0,4.8-0.1,6.8-0.2c2.3-0.1,9.7-0.5,9.7-8.5c0-1.2-0.1-5.2-4.4-7.4
				c-2.2-1.1-4.8-1.2-10.9-1.2H423.6z"/>
			<path d="M484.4,58.4c-6.9,0-13.3-2-19-8.4c-5.5-6.3-7.3-13.5-7.3-20.4c0-16.8,11.4-29,26.4-29c13.7,0,26.4,10.1,26.4,28.9
				C510.9,45.2,501.4,58.4,484.4,58.4z M484.5,10c-9.4,0-15.8,7.6-15.8,19.1c0,12.4,6.9,19.8,16,19.8c6.9,0,15.7-5,15.9-18.3
				C500.9,19.9,495.4,10,484.5,10z"/>
		</g>
		<text transform="matrix(1 0 0 1 454.8777 -99)" style="font-family:'AkzidenzGroteskBE-Md'; font-size:78px; letter-spacing:-1;"> </text>
	</g>
</g>
</svg>
